<svg width="28" height="28" viewBox="0 0 28 28" fill="none" xmlns="http://www.w3.org/2000/svg">
<path d="M4 13.2C3.55817 13.2 3.2 13.5582 3.2 14C3.2 14.4418 3.55817 14.8 4 14.8V14V13.2ZM24.5657 14.5657C24.8781 14.2533 24.8781 13.7467 24.5657 13.4343L19.4745 8.34315C19.1621 8.03073 18.6556 8.03073 18.3431 8.34315C18.0307 8.65557 18.0307 9.1621 18.3431 9.47452L22.8686 14L18.3431 18.5255C18.0307 18.8379 18.0307 19.3444 18.3431 19.6569C18.6556 19.9693 19.1621 19.9693 19.4745 19.6569L24.5657 14.5657ZM4 14V14.8H24V14V13.2H4V14Z" fill="currentColor"/>
</svg>
